# xmcd
#
# Track frame offsets:
#	150
#	12368
#	30611
#	50987
#	65538
#	79845
#	98907
#	114851
#	126799
#	141644
#
# Disc length: 2093 seconds
#
# Revision: 0
# Processed by: cddbd v1.5.2PL0 Copyright (c) Steve Scherf et al.
# Submitted via: EasyCDDAExtractor 11.6.0.1
#
DISCID=8c082b0a
DTITLE=刘文正 - [1977] 可爱的女孩
DYEAR=1977
DGENRE=
TTITLE0=可爱的女孩
TTITLE1=青青山脉
TTITLE2=神话
TTITLE3=小小心愿
TTITLE4=惜别
TTITLE5=永恒的爱 (电影主题曲)
TTITLE6=永远牢记你
TTITLE7=妈妈 (永恒的爱电影插曲)
TTITLE8=方砖路上
TTITLE9=你多可爱
EXTD=
EXTT0=
EXTT1=
EXTT2=
EXTT3=
EXTT4=
EXTT5=
EXTT6=
EXTT7=
EXTT8=
EXTT9=
PLAYORDER=
